<svg width="1" height="1" viewBox="0 0 1 1" fill="none" xmlns="http://www.w3.org/2000/svg">
<g clip-path="url(#clip0_20_2)">
<rect width="1" height="1" fill="white"/>
<path fill-rule="evenodd" clip-rule="evenodd" d="M0.624693 0.0985873C0.612575 0.0934948 0.600203 0.0891258 0.587639 0.0854932C0.586652 0.0765612 0.584446 0.0677965 0.581071 0.0594589C0.576341 0.047773 0.569409 0.0371549 0.560669 0.028211C0.551929 0.019267 0.541554 0.0121722 0.530135 0.00733179C0.518716 0.00249135 0.506477 0 0.494118 0C0.481758 0 0.469519 0.00249134 0.4581 0.00733178C0.446682 0.0121722 0.436306 0.019267 0.427566 0.0282109C0.418827 0.0371549 0.411894 0.047773 0.407164 0.0594588C0.403789 0.0677988 0.401582 0.0765662 0.400596 0.0855009C0.388041 0.089132 0.375677 0.0934984 0.363568 0.0985872C0.322175 0.115983 0.284564 0.141479 0.252882 0.173622C0.221201 0.205764 0.19607 0.243923 0.178925 0.285919C0.162915 0.325132 0.15416 0.366974 0.15307 0.409353H0.124055C0.110756 0.409353 0.0999756 0.420133 0.0999756 0.433432C0.0999756 0.446731 0.110756 0.457512 0.124055 0.457512H0.864131C0.87743 0.457512 0.888211 0.446731 0.888211 0.433432C0.888211 0.420133 0.87743 0.409353 0.864131 0.409353H0.835191C0.834101 0.366974 0.825346 0.325132 0.809337 0.285919C0.792191 0.243923 0.76706 0.205764 0.735379 0.173622C0.703698 0.141479 0.666087 0.115983 0.624693 0.0985873ZM0 0.505671C0 0.489047 0.013476 0.475571 0.0300994 0.475571H0.969901C0.986524 0.475571 1 0.489047 1 0.505671C1 0.522294 0.986524 0.53577 0.969901 0.53577H0.749181C0.7497 0.536572 0.749979 0.537568 0.749979 0.53878C0.749979 0.55684 0.570567 0.728407 0.570567 0.728407L0.441155 0.827735C0.441155 0.827735 0.273508 0.987262 0.258802 0.999302C0.244096 1.01134 0.126449 0.863854 0.158802 0.854824C0.169587 0.851814 0.183639 0.849139 0.197691 0.846463C0.225796 0.841112 0.2539 0.835761 0.255861 0.827735C0.257433 0.821299 0.251443 0.805405 0.245525 0.789703C0.240371 0.776029 0.235273 0.762502 0.235273 0.755496C0.235273 0.751527 0.234864 0.744835 0.234369 0.736746C0.232988 0.714169 0.230942 0.68071 0.235273 0.665198C0.241155 0.644128 0.291155 0.5448 0.297038 0.53878C0.30292 0.53276 0.332332 0.53577 0.332332 0.55985C0.332332 0.567609 0.329889 0.576306 0.327069 0.586343C0.321138 0.607455 0.313541 0.634497 0.323508 0.671218C0.338214 0.725397 0.421369 0.713357 0.491155 0.686267C0.545907 0.665014 0.566047 0.648344 0.590171 0.628376C0.596795 0.622893 0.60372 0.617162 0.611744 0.611019C0.622247 0.602977 0.631003 0.594967 0.639452 0.587236C0.654115 0.573821 0.667857 0.561249 0.688214 0.55082C0.688214 0.55082 0.708833 0.540772 0.726244 0.53577H0.0300995C0.013476 0.53577 0 0.522294 0 0.505671Z" fill="black"/>
</g>
<defs>
<clipPath id="clip0_20_2">
<rect width="1" height="1" fill="white"/>
</clipPath>
</defs>
</svg>
