<svg width="1" height="1" viewBox="0 0 1 1" fill="none" xmlns="http://www.w3.org/2000/svg">
<g clip-path="url(#clip0_21_59)">
<rect width="1" height="1" fill="white"/>
<g clip-path="url(#clip1_21_59)">
<path d="M0.662457 0.09375C0.662457 0.145508 0.620465 0.1875 0.568707 0.1875C0.516949 0.1875 0.474957 0.145508 0.474957 0.09375C0.474957 0.0419922 0.516949 0 0.568707 0C0.620465 0 0.662457 0.0419922 0.662457 0.09375ZM0.575152 0.450586L0.537847 0.599609L0.634918 0.69668C0.652496 0.714258 0.662457 0.738086 0.662457 0.762891V0.9375C0.662457 0.97207 0.634527 1 0.599957 1C0.565386 1 0.537457 0.97207 0.537457 0.9375V0.775977L0.393121 0.631641C0.362261 0.600781 0.349761 0.55625 0.360113 0.513867L0.399957 0.349805C0.416168 0.283203 0.483355 0.242578 0.549761 0.25918C0.586871 0.268555 0.619293 0.291211 0.640386 0.323047L0.695855 0.40625H0.756207V0.359375C0.756207 0.333398 0.777105 0.3125 0.803082 0.3125C0.829058 0.3125 0.849957 0.333398 0.849957 0.359375V0.468359C0.849957 0.468555 0.849957 0.46875 0.849957 0.46875V0.469141V0.953125C0.849957 0.979102 0.829058 1 0.803082 1C0.777105 1 0.756207 0.979102 0.756207 0.953125V0.53125H0.679254C0.648004 0.53125 0.618707 0.515625 0.601324 0.489453L0.575347 0.450391L0.575152 0.450586ZM0.258355 0.92168L0.329058 0.652344C0.334918 0.660547 0.341558 0.668359 0.348785 0.675586L0.430621 0.757422L0.379058 0.95332C0.370269 0.986719 0.33609 1.00664 0.302691 0.997852C0.269293 0.989062 0.249371 0.954883 0.25816 0.921484L0.258355 0.92168ZM0.366754 0.245898L0.298004 0.520508C0.292144 0.544141 0.268902 0.559375 0.244879 0.555469L0.151324 0.539844C0.12398 0.535352 0.106597 0.508008 0.113824 0.48125L0.162261 0.302734C0.180816 0.234766 0.242535 0.1875 0.313043 0.1875H0.321246C0.351715 0.1875 0.374175 0.216211 0.366754 0.245703V0.245898Z" fill="black"/>
</g>
</g>
<defs>
<clipPath id="clip0_21_59">
<rect width="1" height="1" fill="white"/>
</clipPath>
<clipPath id="clip1_21_59">
<rect width="0.75" height="1" fill="white" transform="translate(0.0999756)"/>
</clipPath>
</defs>
</svg>
