<svg width="1" height="1" viewBox="0 0 1 1" fill="none" xmlns="http://www.w3.org/2000/svg">
    <g clip-path="url(#clip0_20_11)">
        <rect width="1" height="1" fill="white" />
        <path fill-rule="evenodd" clip-rule="evenodd" d="M0.222533 0.444267C0.222533 0.203094 0.400635 0.000631804 0.63824 0C0.584293 0.0920267 0.460533 0.577547 1 0.62832C0.997658 0.631704 0.994824 0.63624 0.991423 0.641685C0.953353 0.702635 0.844127 0.877502 0.555733 0.825067C0.625546 0.796507 0.730266 0.660054 0.555733 0.577547C0.524 0.49504 0.463706 0.434747 0.317733 0.479174C0.310806 0.475221 0.30536 0.471071 0.300107 0.467068L0.300107 0.467068C0.284274 0.455002 0.270188 0.444267 0.222533 0.444267ZM0.101946 0.574373C-0.0154673 0.583893 -0.0694139 0.825067 0.15272 0.796507C0.202813 0.850453 0.241573 0.8568 0.308213 0.825067C0.349466 0.853627 0.428799 0.89488 0.498613 0.796507C0.587466 0.8092 0.68584 0.669573 0.524 0.60928C0.51448 0.529947 0.441493 0.46648 0.308213 0.5236C0.235226 0.450613 0.130506 0.479173 0.101946 0.574373ZM0.106675 0.310414L0.0924262 0.26656L0.078177 0.310414H0.0320658L0.0693706 0.337518L0.0551214 0.381372L0.0924262 0.354269L0.129731 0.381372L0.115482 0.337518L0.152787 0.310414H0.106675ZM0.244746 0.0825067L0.253296 0.108819H0.280962L0.25858 0.125081L0.267129 0.151394L0.244746 0.135132L0.222363 0.151394L0.230913 0.125081L0.20853 0.108819H0.236197L0.244746 0.0825067ZM0.732146 0.263563L0.720746 0.22848L0.709347 0.263563H0.672458L0.702302 0.285246L0.690903 0.32033L0.720746 0.298647L0.75059 0.32033L0.739191 0.285246L0.769035 0.263563H0.732146ZM0.850853 0.184053L0.85869 0.208173H0.884051L0.863534 0.22308L0.871371 0.2472L0.850853 0.232293L0.830335 0.2472L0.838172 0.22308L0.817655 0.208173H0.843016L0.850853 0.184053ZM0.881357 0.384845L0.863546 0.330027L0.845734 0.384845H0.788095L0.834726 0.418724L0.816915 0.473542L0.863546 0.439663L0.910177 0.473542L0.892365 0.418724L0.938996 0.384845H0.881357Z" fill="black" />
        <path fill-rule="evenodd" clip-rule="evenodd" d="M0.222533 0.444267C0.222533 0.203094 0.400635 0.000631804 0.63824 0C0.584293 0.0920267 0.460533 0.577547 1 0.62832C0.997658 0.631704 0.994824 0.63624 0.991423 0.641685C0.953353 0.702635 0.844127 0.877502 0.555733 0.825067C0.625546 0.796507 0.730266 0.660054 0.555733 0.577547C0.524 0.49504 0.463706 0.434747 0.317733 0.479174C0.310806 0.475221 0.30536 0.471071 0.300107 0.467068L0.300107 0.467068C0.284274 0.455002 0.270188 0.444267 0.222533 0.444267ZM0.101946 0.574373C-0.0154673 0.583893 -0.0694139 0.825067 0.15272 0.796507C0.202813 0.850453 0.241573 0.8568 0.308213 0.825067C0.349466 0.853627 0.428799 0.89488 0.498613 0.796507C0.587466 0.8092 0.68584 0.669573 0.524 0.60928C0.51448 0.529947 0.441493 0.46648 0.308213 0.5236C0.235226 0.450613 0.130506 0.479173 0.101946 0.574373ZM0.106675 0.310414L0.0924262 0.26656L0.078177 0.310414H0.0320658L0.0693706 0.337518L0.0551214 0.381372L0.0924262 0.354269L0.129731 0.381372L0.115482 0.337518L0.152787 0.310414H0.106675ZM0.244746 0.0825067L0.253296 0.108819H0.280962L0.25858 0.125081L0.267129 0.151394L0.244746 0.135132L0.222363 0.151394L0.230913 0.125081L0.20853 0.108819H0.236197L0.244746 0.0825067ZM0.732146 0.263563L0.720746 0.22848L0.709347 0.263563H0.672458L0.702302 0.285246L0.690903 0.32033L0.720746 0.298647L0.75059 0.32033L0.739191 0.285246L0.769035 0.263563H0.732146ZM0.850853 0.184053L0.85869 0.208173H0.884051L0.863534 0.22308L0.871371 0.2472L0.850853 0.232293L0.830335 0.2472L0.838172 0.22308L0.817655 0.208173H0.843016L0.850853 0.184053ZM0.881357 0.384845L0.863546 0.330027L0.845734 0.384845H0.788095L0.834726 0.418724L0.816915 0.473542L0.863546 0.439663L0.910177 0.473542L0.892365 0.418724L0.938996 0.384845H0.881357Z" fill="black" />
    </g>
    <defs>
        <clipPath id="clip0_20_11">
            <rect width="1" height="1" fill="white" />
        </clipPath>
    </defs>
</svg>