<svg width="1" height="1" viewBox="0 0 1 1" fill="none" xmlns="http://www.w3.org/2000/svg">
<g clip-path="url(#clip0_21_52)">
<rect width="1" height="1" fill="white"/>
<path d="M0.75262 0.375C0.753214 0.364648 0.75361 0.354297 0.75361 0.34375C0.75361 0.244141 0.722107 0.15625 0.673961 0.0945313C0.625815 0.0330078 0.563799 0 0.5 0C0.436201 0 0.374185 0.0330078 0.326039 0.0945313C0.277893 0.15625 0.24639 0.244141 0.24639 0.34375C0.24639 0.354297 0.246786 0.364648 0.24738 0.375H0.468299V0.625H0.404896C0.391027 0.625 0.377752 0.62793 0.365864 0.633203L0.127906 0.375H0.183978C0.183383 0.364648 0.182987 0.354297 0.182987 0.34375C0.182987 0.21875 0.226973 0.107031 0.296121 0.0326172C0.115622 0.0962891 0.0296321 0.239453 0.00110091 0.339063C-0.00424868 0.357617 0.0106113 0.375 0.0302265 0.375H0.0421145L0.320095 0.676367C0.313557 0.689062 0.309792 0.703516 0.309792 0.71875V0.90625C0.309792 0.958008 0.352391 1 0.404896 1H0.595104C0.647609 1 0.690208 0.958008 0.690208 0.90625V0.71875C0.690208 0.703516 0.686443 0.689062 0.679905 0.676367L0.957886 0.375H0.969774C0.989389 0.375 1.00425 0.357617 0.998899 0.339063C0.970368 0.239453 0.884378 0.0962891 0.703879 0.0326172C0.773027 0.107031 0.817013 0.218945 0.817013 0.34375C0.817013 0.354297 0.816617 0.364648 0.816022 0.375H0.872094L0.634136 0.633203C0.622248 0.62793 0.608973 0.625 0.595104 0.625H0.531701V0.375H0.75262Z" fill="black"/>
</g>
<defs>
<clipPath id="clip0_21_52">
<rect width="1" height="1" fill="white"/>
</clipPath>
</defs>
</svg>
