<svg width="1" height="1" viewBox="0 0 1 1" fill="none" xmlns="http://www.w3.org/2000/svg">
<g clip-path="url(#clip0_21_44)">
<rect width="1" height="1" fill="white"/>
<g clip-path="url(#clip1_21_44)">
<path d="M0.409641 0.00664192C0.440499 -0.00879078 0.477996 0.00371166 0.493425 0.0345771L0.54225 0.132252L0.625057 0.148857C0.66314 0.156476 0.69888 0.172885 0.729542 0.196718L0.975815 0.388357C1.00316 0.40965 1.00804 0.448916 0.986752 0.47607C0.965464 0.503223 0.926209 0.508302 0.899062 0.487009L0.758251 0.377417L0.618612 0.439539L0.683256 0.493456C0.728566 0.531158 0.748681 0.591131 0.735401 0.648564L0.701419 0.795468C0.697122 0.813831 0.685404 0.828287 0.669976 0.836492L0.83891 0.901153C0.847894 0.904669 0.857268 0.906232 0.866838 0.906232H0.921912C0.947887 0.906232 0.968784 0.927134 0.968784 0.953116C0.968784 0.979098 0.947887 1 0.921912 1H0.866838C0.845745 1 0.825044 0.996093 0.805318 0.98867L0.117473 0.725337C0.0950133 0.716742 0.0745068 0.703458 0.0573205 0.686267L0.0137686 0.642704C-0.00458954 0.624341 -0.00458954 0.594647 0.0137686 0.57648C0.0321268 0.558312 0.0618124 0.558117 0.0799752 0.57648L0.123722 0.620238C0.131534 0.628052 0.140713 0.634108 0.151064 0.638015L0.194811 0.654815C0.193249 0.65169 0.191882 0.648564 0.19071 0.645243C0.179773 0.612424 0.197546 0.577066 0.230161 0.566126L0.375073 0.517484V0.413557C0.375073 0.366282 0.401829 0.322915 0.444209 0.301817L0.532485 0.257668L0.517837 0.254737C0.479949 0.247119 0.447725 0.222504 0.430538 0.188123L0.381713 0.0904474C0.366285 0.0595819 0.378784 0.0220746 0.409641 0.00664192V0.00664192ZM0.271564 0.683923L0.582091 0.802891C0.577989 0.791952 0.577013 0.779644 0.579942 0.767337L0.613925 0.620434C0.616659 0.608908 0.612558 0.596992 0.603378 0.589373L0.50026 0.503419V0.540145C0.50026 0.580582 0.474481 0.616331 0.436202 0.629029L0.271564 0.683923ZM0.843792 0.187537C0.792038 0.187537 0.750049 0.145536 0.750049 0.0937683C0.750049 0.0420004 0.792038 0 0.843792 0C0.895547 0 0.937536 0.0420004 0.937536 0.0937683C0.937536 0.145536 0.895547 0.187537 0.843792 0.187537Z" fill="black"/>
</g>
</g>
<defs>
<clipPath id="clip0_21_44">
<rect width="1" height="1" fill="white"/>
</clipPath>
<clipPath id="clip1_21_44">
<rect width="1" height="1" fill="white"/>
</clipPath>
</defs>
</svg>
