<svg width="1" height="1" viewBox="0 0 1 1" fill="none" xmlns="http://www.w3.org/2000/svg">
<g clip-path="url(#clip0_21_56)">
<rect width="1" height="1" fill="white"/>
<g clip-path="url(#clip1_21_56)">
<path d="M0.499998 0.302844V0.177819L0.708435 0.10049C0.726248 0.0938343 0.745935 0.101916 0.754529 0.11903L0.88781 0.386987C0.935935 0.483649 0.90031 0.599008 0.812654 0.652251L0.856404 0.7749L0.949841 0.740039C0.969216 0.732908 0.990622 0.743049 0.99781 0.762857C1.005 0.782665 0.994841 0.804532 0.975466 0.811663L0.718279 0.907215C0.698904 0.914346 0.677498 0.904204 0.670466 0.884397C0.663435 0.864589 0.673435 0.842721 0.69281 0.835591L0.786404 0.800888L0.742654 0.678397C0.636248 0.696779 0.530623 0.626422 0.508123 0.514232L0.500154 0.474933L0.492185 0.514232C0.469529 0.626422 0.36406 0.696779 0.257654 0.678397L0.213904 0.800888L0.307497 0.835591C0.326872 0.842721 0.336873 0.864589 0.329841 0.884397C0.32281 0.904204 0.301404 0.914346 0.282029 0.907215L0.0248414 0.811663C0.00546637 0.804532 -0.00453371 0.782665 0.00249754 0.762857C0.00952879 0.743049 0.0309351 0.732908 0.0503101 0.740039L0.143904 0.774742L0.187654 0.652093C0.0999975 0.59885 0.0645288 0.48349 0.112498 0.386829L0.245466 0.11903C0.25406 0.101757 0.273904 0.0938343 0.29156 0.10049L0.499998 0.177819V0.302844ZM0.555779 0.373201L0.759529 0.297457L0.70281 0.183523L0.53031 0.247542L0.555623 0.373201H0.555779ZM0.444372 0.373201L0.469685 0.247542L0.297185 0.183523L0.240466 0.297457L0.444216 0.373201H0.444372Z" fill="black"/>
</g>
</g>
<defs>
<clipPath id="clip0_21_56">
<rect width="1" height="1" fill="white"/>
</clipPath>
<clipPath id="clip1_21_56">
<rect width="1" height="0.811321" fill="white" transform="matrix(-1 0 0 1 1 0.100006)"/>
</clipPath>
</defs>
</svg>
