<svg width="1" height="1" viewBox="0 0 1 1" fill="none" xmlns="http://www.w3.org/2000/svg">
<g clip-path="url(#clip0_21_56)">
<rect width="1" height="1" fill="white"/>
<path d="M0.503778 0.161191L0.691048 0.0920919C0.707051 0.0861448 0.72474 0.0933662 0.732461 0.108659L0.852206 0.3481C0.895444 0.434474 0.863437 0.537557 0.784683 0.585134L0.870877 0.789725L0.954826 0.758574C0.972233 0.752202 0.991465 0.761264 0.997923 0.778964C1.00438 0.796664 0.995256 0.816204 0.977848 0.822576L0.74678 0.907959C0.729372 0.914331 0.71014 0.905269 0.703823 0.887569C0.697506 0.869869 0.70649 0.850329 0.723898 0.843957L0.807986 0.812947L0.721792 0.608498C0.626192 0.624923 0.531293 0.562054 0.511078 0.461803L0.503919 0.426687L0.496759 0.461803C0.476404 0.562054 0.381646 0.624923 0.286046 0.608498L0.201958 0.802327L0.286046 0.833337C0.303454 0.839709 0.312438 0.85925 0.306121 0.876949C0.299804 0.894649 0.280571 0.903711 0.263164 0.897339L0.0320957 0.811956C0.0146884 0.805584 0.0057039 0.786044 0.0120211 0.768344C0.0183383 0.750644 0.0375706 0.741582 0.054978 0.747954L0.139067 0.778964L0.223155 0.584992C0.144401 0.537416 0.112535 0.434333 0.155632 0.347958L0.275097 0.108659C0.282818 0.0932246 0.300646 0.0861448 0.316509 0.0920919L0.503778 0.161191Z" fill="black"/>
</g>
<defs>
<clipPath id="clip0_21_56">
<rect width="1" height="1" fill="white"/>
</clipPath>
</defs>
</svg>
