<svg width="1" height="1" viewBox="0 0 1 1" fill="none" xmlns="http://www.w3.org/2000/svg">
<g clip-path="url(#clip0_20_22)">
<rect width="1" height="1" fill="white"/>
<path fill-rule="evenodd" clip-rule="evenodd" d="M0.6913 0.0227352C0.6913 0.0101789 0.701479 0 0.714036 0H0.789758C0.802314 0 0.812493 0.0101789 0.812493 0.0227352C0.812493 0.0352915 0.802314 0.0454704 0.789758 0.0454704H0.786524V0.250473C0.814652 0.258149 0.840595 0.274688 0.858916 0.299417C0.876161 0.322695 0.881828 0.400121 0.881746 0.492713C0.930716 0.491824 0.984162 0.5 0.987664 0.515036C1.00566 0.59229 1.00596 0.731176 0.975161 0.746905C0.903343 0.783577 0.894768 0.824568 0.903344 0.943994L0.923673 0.946789C0.961088 0.951863 0.963311 0.952165 0.989349 0.965756C1.06028 1.01586 0.729253 1.00675 0.800188 0.965756C0.825566 0.951092 0.827613 0.950815 0.86491 0.945781L0.885311 0.942984C0.890812 0.866368 0.889618 0.822547 0.869093 0.791292L0.867614 0.811825C0.863168 0.872338 0.812528 0.918503 0.751851 0.918503C0.718187 0.918503 0.687609 0.904283 0.666302 0.881284C0.640248 0.909512 0.409062 0.897728 0.469479 0.862815C0.494857 0.84815 0.496903 0.847874 0.534201 0.84284L0.554601 0.840043C0.556082 0.81942 0.557078 0.801173 0.557342 0.784908C0.550549 0.786626 0.543349 0.788271 0.535774 0.789836C0.509976 0.813462 0.420892 0.830882 0.314961 0.830882C0.209029 0.830882 0.119946 0.813462 0.0941471 0.789836C0.0360365 0.777831 0 0.761123 0 0.742647C0 0.720919 0.0498383 0.701637 0.126806 0.689572C0.126263 0.686477 0.125984 0.683333 0.125984 0.680147C0.125984 0.635621 0.180463 0.599133 0.24961 0.595832C0.277088 0.590945 0.31256 0.588235 0.358268 0.588235C0.396543 0.588235 0.432317 0.593138 0.462757 0.601646C0.452744 0.552355 0.455231 0.471656 0.469479 0.411922C0.475142 0.388183 0.572768 0.384646 0.624906 0.395741C0.628128 0.349681 0.634342 0.314653 0.644878 0.299417C0.663198 0.272922 0.689142 0.256506 0.717271 0.249495V0.0454704H0.714036C0.701479 0.0454704 0.6913 0.0352915 0.6913 0.0227352ZM0.572635 0.841053C0.571022 0.818595 0.570016 0.798911 0.569923 0.781508C0.607662 0.770596 0.629921 0.757168 0.629921 0.742647C0.629921 0.729478 0.611613 0.717207 0.580053 0.706897C0.588567 0.684907 0.603156 0.668703 0.626409 0.654121C0.629156 0.711649 0.632798 0.766906 0.636122 0.811892C0.637362 0.828667 0.642153 0.844339 0.649724 0.858229C0.631464 0.849069 0.625611 0.848275 0.592964 0.843848L0.572635 0.841053Z" fill="black"/>
</g>
<defs>
<clipPath id="clip0_20_22">
<rect width="1" height="1" fill="white"/>
</clipPath>
</defs>
</svg>
