<svg width="1000" height="1000" viewBox="0 0 1000 1000" fill="none" xmlns="http://www.w3.org/2000/svg">
<rect width="1000" height="1000" fill="white"/>
<path d="M461.5 0V194.5L392.5 232.5C436.167 287 524.8 394.9 530 390.5C536.5 385 567 223 530 217.5C493 212 429.528 244 427 258C424.472 272 374.5 370.5 383.5 390.5C390.7 406.5 438.5 497.167 461.5 540.5L479 630.5L461.5 741.5C496 748.167 563.9 759.5 559.5 751.5C554 741.5 514.5 699.5 488 699.5C461.5 699.5 446 705.5 427 728.5C408 751.5 391 787.5 409 811.5C427 835.5 470 867 479 866C488 865 517.5 888 520 912C522 931.2 520.833 950.333 520 957.5L461.5 980.5V998.5" stroke="black" stroke-width="3"/>
</svg>
