<svg width="1" height="1" viewBox="0 0 1 1" fill="none" xmlns="http://www.w3.org/2000/svg">
<g clip-path="url(#clip0_4_6)">
<rect width="1" height="1" fill="white"/>
<path fill-rule="evenodd" clip-rule="evenodd" d="M1 0.1C1 0.0447715 0.955228 0 0.9 0H0.1C0.0447715 0 0 0.0447715 0 0.1V0.9C0 0.955228 0.0447715 1 0.1 1H0.9C0.955228 1 1 0.955228 1 0.9V0.1ZM0.736482 0.363473C0.736482 0.308245 0.69171 0.263473 0.636482 0.263473H0.363428C0.308199 0.263473 0.263428 0.308245 0.263428 0.363473V0.636527C0.263428 0.691755 0.308199 0.736527 0.363428 0.736527H0.636482C0.69171 0.736527 0.736482 0.691755 0.736482 0.636527V0.363473Z" fill="#D9D9D9"/>
</g>
<defs>
<clipPath id="clip0_4_6">
<rect width="1" height="1" fill="white"/>
</clipPath>
</defs>
</svg>
